<svg width="234" height="181" viewBox="0 0 234 181" fill="none" xmlns="http://www.w3.org/2000/svg">
<g clip-path="url(#clip0_102_38)">
<path d="M122.812 179.467C113.748 172.444 94.9299 156.607 92.1745 149.447C89.7568 140.808 89.8542 125.245 109.578 132.106L119.73 139.378C123.719 134.592 133 125.021 138.222 125.021C144.749 125.021 152.363 129.868 152.725 137.513V139.751C152.725 140.31 151.335 142.672 150.549 143.853L147.287 149.074L143.298 155.227L139.853 160.635L136.409 165.483L132.783 170.33L129.157 174.806C127.586 176.484 124.371 179.878 124.082 180.027C123.867 180.209 123.146 179.729 122.812 179.467Z" fill="#FFBAD3" fill-opacity="0.76"/>
<path d="M123.719 179.467C123.636 179.362 123.481 179.238 123.356 179.095L114.292 171.636L105.952 164.364C103.837 162.375 99.6072 158.36 99.6072 158.211C99.6072 158.024 95.2558 153.735 94.3493 151.871C93.4437 150.006 92.288 149.634 91.8119 144.226C91.4306 139.9 92.3782 136.829 92.8998 135.836C93.5035 134.2 95.9811 130.98 101.058 131.174C106.133 131.368 108.732 132.374 109.397 132.852L116.104 137.513L119.73 140.124C124.383 135.089 134.596 125.17 138.222 125.766C141.848 126.363 143.722 126.886 144.205 127.071C145.352 127.755 147.939 129.422 149.099 130.615C150.55 132.106 152.725 137.887 151.819 140.124C150.912 142.361 133.094 171.45 123.719 179.467ZM123.719 179.467C123.538 179.654 123.791 180.176 124.082 180.027M124.082 180.027C124.371 179.878 127.586 176.484 129.157 174.806L132.783 170.33L136.409 165.483L139.853 160.635L143.298 155.227L147.287 149.074L150.55 143.853C151.335 142.672 152.725 140.31 152.725 139.751V137.513C152.363 129.868 144.749 125.021 138.222 125.021C133 125.021 123.719 134.592 119.73 139.378L109.578 132.106C89.8542 125.245 89.7568 140.808 92.1745 149.447C94.9299 156.607 113.748 172.444 122.812 179.467C123.146 179.729 123.867 180.209 124.082 180.027Z" stroke="black"/>
<path d="M77.765 58.7412C77.8948 56.9079 78.3357 56.2948 79.1968 55.1845C80.507 53.4952 83.6714 52.7158 86.1046 53.4667C88.5376 54.2174 89.8479 56.6575 90.0525 58C90.2516 59.312 90.5964 61.3407 88.5378 63.8793C87.2174 65.5073 82.7357 65.7563 80.507 64.5694C79.5513 63.9509 77.9263 62.353 77.7233 60.0546C77.6866 59.6391 77.6964 59.2008 77.765 58.7412Z" fill="black"/>
<path d="M77.7233 60.1253C77.7233 57.1507 78.1487 56.5359 79.1968 55.1845C80.507 53.4952 83.6714 52.7158 86.1046 53.4667C88.5376 54.2174 89.8479 56.6575 90.0525 58C90.2516 59.312 90.5964 61.3407 88.5378 63.8793C87.2174 65.5073 82.7357 65.7563 80.507 64.5694C79.3783 63.8389 77.3161 61.7425 77.7652 58.7393" stroke="black"/>
<path d="M65.9249 134.613C-72.4514 72.4426 59.8306 160.455 56.7834 166.072C56.9122 166.577 56.9186 167.512 55.9148 167.212C54.911 166.913 50.5973 162.344 48.5658 160.096L38.5282 151.295L25.9811 140.622L15.7642 131.82C13.2548 129.511 8.05672 124.667 7.33974 123.769C6.62277 122.869 5.00957 121.272 4.2926 120.585L1.96242 117.214C1.60394 116.153 0.994509 113.881 1.42469 113.282C1.96242 112.533 2.6794 111.409 3.75486 111.222C4.83033 111.035 7.87748 110.848 8.7737 111.222C9.66992 111.597 17.5566 113.282 21.6793 114.78C25.8019 116.278 33.1508 119.087 34.5848 119.648C35.732 120.098 40.0816 121.959 42.113 122.832L53.9432 127.888L62.7261 131.82L59.679 126.764C58.3645 124.08 55.6281 118.45 55.1978 117.402C54.7677 116.353 52.0312 109.848 50.7168 106.727C49.4023 102.982 46.7734 95.3049 46.7734 94.5557C46.7734 93.6199 45.1602 88.3763 45.1602 82.1968C45.1602 77.2532 46.2357 70.2746 46.7734 67.4033C47.4306 64.4071 48.781 58.3774 48.9243 58.2277C49.1036 58.0403 51.613 49.4264 52.8677 46.8048C54.1224 44.1832 55.3771 40.8125 57.3488 37.4419C59.3205 34.0712 63.8016 28.2662 63.9809 28.0789C64.16 27.8917 69.8959 20.7926 73.1222 18.3414C76.3487 15.8904 83.3392 11.4129 84.0562 11.0384C84.7731 10.6639 92.3014 5.60783 99.4714 4.10975C106.641 2.61168 112.735 1.67538 114.886 1.30087C117.037 0.926346 126.716 1.11361 129.226 1.67538C131.735 2.23716 138.008 2.79894 152.528 8.22945C164.142 12.5739 176.964 25.6446 181.923 31.6368C182.879 32.8228 185.58 36.5056 188.734 41.7488C192.678 48.3029 195.725 66.8415 196.442 75.0809C197.159 83.3203 195.849 100.173 194.981 103.17C194.112 106.166 191.244 118.899 185.867 126.39C183.447 129.76 182.199 131.393 181.613 132.088C185.673 129.158 193.996 123.416 197.876 121.692C202.895 119.461 210.423 114.78 217.414 111.783C223.006 109.386 228.347 109.038 230.319 109.162C231.395 109.474 233.402 110.585 232.828 112.533C232.65 113.843 232.148 116.69 231.574 117.588C230.857 118.713 223.687 129.012 221.177 132.008C219.17 134.405 210.065 143.493 205.763 147.737L196.263 157.475L185.329 167.212C184.612 167.061 183.393 166.622 184.254 166.072C189.153 163.388 202.473 148.345 214.366 136.891C225.838 125.843 232.231 115.481 231.215 111.424C228.168 110.612 227.165 109.177 215.979 114.42C204.988 119.573 182.968 131.569 173.933 139.09C173.765 139.24 173.61 139.371 173.472 139.481C173.622 139.352 173.775 139.223 173.933 139.09C176.248 137.042 181.345 131.324 186.556 121.692C193.547 108.771 194.981 90.9644 194.981 83.6781C194.981 70.976 190.585 47.2255 184.254 38.2056C177.922 29.1858 164.895 15.7345 152.528 10.8658C140.16 5.99702 129.405 0.566534 111.66 3.74994C93.9144 6.93334 93.7081 7.8382 79.906 15.8904C68.8646 22.332 59.8904 35.8022 56.7835 41.7321C52.3621 51.1575 44.3079 74.053 47.4626 90.2322C50.6173 106.411 61.0853 126.56 65.9249 134.613Z" fill="black"/>
<path d="M56.7834 166.072C59.8306 160.455 -72.4514 72.4426 65.9249 134.613C61.0853 126.56 50.6173 106.411 47.4626 90.2322C44.3079 74.053 52.3621 51.1575 56.7835 41.7321C59.8904 35.8022 68.8646 22.332 79.906 15.8904C93.7081 7.8382 93.9144 6.93334 111.66 3.74994C129.405 0.566534 140.16 5.99702 152.528 10.8658C164.895 15.7345 177.922 29.1858 184.254 38.2056C190.585 47.2255 194.981 70.976 194.981 83.6781C194.981 90.9644 193.547 108.771 186.556 121.692C180.963 132.028 175.503 137.859 173.472 139.481C182.195 131.991 204.795 119.663 215.979 114.42C227.165 109.177 228.168 110.612 231.215 111.424C232.231 115.481 225.838 125.843 214.366 136.891C202.473 148.345 189.153 163.388 184.254 166.072C183.393 166.622 184.612 167.061 185.329 167.212L196.263 157.475L205.763 147.737C210.065 143.493 219.17 134.405 221.177 132.008C223.687 129.012 230.857 118.713 231.574 117.588C232.148 116.69 232.65 113.843 232.828 112.533C233.402 110.585 231.395 109.474 230.319 109.162C228.347 109.038 223.006 109.386 217.414 111.783C210.423 114.78 202.895 119.461 197.876 121.692C193.861 123.476 185.09 129.562 181.206 132.382C180.968 132.882 181.565 132.382 185.867 126.39C191.244 118.899 194.112 106.166 194.981 103.17C195.849 100.173 197.159 83.3203 196.442 75.0809C195.725 66.8415 192.678 48.3029 188.734 41.7488C185.58 36.5056 182.879 32.8228 181.923 31.6368C176.964 25.6446 164.142 12.5739 152.528 8.22945C138.008 2.79894 131.735 2.23716 129.226 1.67538C126.716 1.11361 117.037 0.926346 114.886 1.30087C112.735 1.67538 106.641 2.61168 99.4714 4.10975C92.3014 5.60783 84.7731 10.6639 84.0562 11.0384C83.3392 11.4129 76.3487 15.8904 73.1222 18.3414C69.8959 20.7926 64.16 27.8917 63.9809 28.0789C63.8016 28.2662 59.3205 34.0712 57.3488 37.4419C55.3771 40.8125 54.1224 44.1832 52.8677 46.8048C51.613 49.4264 49.1036 58.0403 48.9243 58.2277C48.781 58.3774 47.4306 64.4071 46.7734 67.4033C46.2357 70.2746 45.1602 77.2531 45.1602 82.1968C45.1602 88.3763 46.7734 93.6199 46.7734 94.5557C46.7734 95.3049 49.4023 102.982 50.7168 106.727C52.0312 109.848 54.7677 116.353 55.1979 117.402C55.6281 118.45 58.3645 124.08 59.6789 126.764L62.7261 131.82L53.9432 127.888L42.113 122.832C40.0816 121.959 35.732 120.098 34.5848 119.648C33.1508 119.087 25.8019 116.278 21.6793 114.78C17.5566 113.282 9.66992 111.597 8.7737 111.222C7.87748 110.848 4.83033 111.035 3.75486 111.222C2.6794 111.409 1.96242 112.533 1.42469 113.282C0.994509 113.881 1.60394 116.153 1.96242 117.214L4.2926 120.585C5.00957 121.272 6.62277 122.869 7.33974 123.769C8.05672 124.667 13.2548 129.511 15.7642 131.82L25.9811 140.622L38.5282 151.295L48.5658 160.096C50.5973 162.344 54.911 166.913 55.9148 167.212C56.9186 167.512 56.9122 166.577 56.7834 166.072Z" stroke="black"/>
<path d="M104.977 84.4258C103.595 82.6816 102.339 83.7281 102.339 84.7746V88.1466L103.218 91.2861C103.595 91.5187 104.805 94.7955 109.373 94.5417C115.653 94.1928 115.982 92.8556 117.286 91.2861C118.542 89.7745 119.211 86.6738 119.546 84.7746C119.085 83.418 118.316 81.9142 116.909 85.8211C115.15 90.7048 115.527 90.5885 113.015 91.5187C111.965 91.9074 108.619 92.7978 106.86 91.8676C105.454 91.1233 104.474 86.4025 104.977 84.4258Z" fill="black" stroke="#222222"/>
<path d="M119.451 139.387C119.628 139.196 119.775 138.974 119.963 138.793C120.036 138.723 120.107 138.651 120.177 138.577C120.22 138.533 120.235 138.474 120.263 138.418C120.323 138.299 120.4 138.202 120.482 138.098C120.581 137.973 120.662 137.824 120.776 137.716C120.791 137.701 120.891 137.595 120.889 137.659C120.883 137.796 120.813 137.946 120.715 138.036C120.627 138.116 120.551 138.227 120.485 138.327C120.474 138.343 120.399 138.436 120.444 138.379C120.766 137.965 121.056 137.535 121.43 137.168C121.527 137.073 121.633 136.992 121.737 136.905C121.828 136.83 121.87 136.752 121.934 136.649C122.005 136.533 122.08 136.42 122.174 136.322C122.206 136.288 122.236 136.252 122.271 136.221C122.343 136.159 122.287 136.365 122.286 136.374C122.269 136.46 122.255 136.569 122.221 136.65C122.209 136.677 122.173 136.691 122.167 136.718C122.137 136.841 122.236 136.472 122.291 136.359C122.464 136.007 122.713 135.787 122.983 135.527C123.071 135.443 123.102 135.458 123.033 135.573C122.968 135.682 122.891 135.786 122.812 135.885C122.722 135.998 122.683 136.143 122.596 136.254C122.456 136.432 122.783 135.833 122.904 135.64C123.064 135.385 123.304 135.168 123.505 134.95C123.577 134.871 123.655 134.802 123.732 134.729C123.788 134.675 123.985 134.515 123.861 134.699C123.69 134.954 123.442 135.15 123.285 135.415C123.247 135.479 123.103 135.692 123.226 135.477C123.339 135.277 123.448 135.05 123.599 134.878C123.723 134.736 123.874 134.614 124.018 134.493C124.241 134.307 124.468 134.121 124.67 133.908C124.757 133.816 124.831 133.717 124.91 133.619C124.914 133.614 125.002 133.519 124.964 133.517C124.794 133.513 124.621 133.672 124.512 133.786C124.347 133.957 124.201 134.144 124.057 134.334C124.025 134.376 124.024 134.405 124.016 134.458C124.004 134.546 123.973 134.624 123.945 134.707C123.931 134.749 123.901 134.812 123.914 134.859C123.927 134.908 124.041 134.798 124.056 134.786C124.18 134.681 124.283 134.549 124.403 134.44C124.445 134.402 124.48 134.352 124.508 134.302C124.651 134.034 124.798 133.772 124.959 133.516C125.031 133.402 125.104 133.308 125.196 133.216C125.236 133.176 125.272 133.131 125.314 133.096C125.375 133.045 125.294 133.162 125.286 133.176C125.227 133.287 125.159 133.4 125.076 133.493C125.04 133.534 124.984 133.612 124.966 133.666C124.955 133.698 124.906 133.746 124.917 133.784C124.931 133.837 124.994 133.707 125.035 133.671C125.092 133.622 125.13 133.56 125.18 133.503C125.261 133.412 125.352 133.333 125.439 133.248C125.493 133.195 125.567 133.121 125.502 133.046C125.453 132.99 125.336 132.957 125.418 132.892C125.483 132.84 125.56 132.807 125.624 132.756C125.699 132.696 125.771 132.622 125.842 132.556C125.935 132.47 126.055 132.381 126.132 132.28C126.203 132.19 126.03 132.486 125.975 132.588C125.894 132.737 125.707 132.79 125.629 132.953C125.605 133.002 125.579 133.052 125.552 133.101C125.533 133.135 125.553 133.14 125.579 133.116C125.65 133.053 125.713 132.979 125.779 132.91C126.019 132.66 126.314 132.485 126.554 132.236C126.75 132.03 126.989 131.878 127.193 131.678C127.296 131.579 127.412 131.493 127.52 131.4C127.538 131.384 127.785 131.233 127.772 131.218C127.749 131.191 127.603 131.218 127.579 131.221C127.458 131.234 127.322 131.246 127.209 131.302C127.073 131.37 126.962 131.47 126.841 131.565C126.723 131.656 126.634 131.79 126.523 131.893C126.379 132.026 126.241 132.17 126.11 132.319C125.978 132.47 126.452 132.114 126.611 131.994C126.646 131.969 126.692 131.989 126.692 131.94" stroke="black" stroke-linecap="round"/>
<path d="M127.533 131.214C127.806 130.939 128.167 130.768 128.493 130.574C128.564 130.531 128.631 130.509 128.696 130.457C128.74 130.423 128.588 130.471 128.535 130.483C128.275 130.546 128.011 130.62 127.785 130.77C127.572 130.909 127.385 131.088 127.184 131.244C127.164 131.26 127.142 131.283 127.116 131.29C126.988 131.33 127.312 131.101 127.418 131.017C127.774 130.738 128.173 130.522 128.565 130.305C128.864 130.141 129.156 129.961 129.448 129.783C129.523 129.737 129.504 129.818 129.562 129.785C129.594 129.768 129.795 129.543 129.808 129.556C129.818 129.564 129.805 129.597 129.824 129.596C129.874 129.592 129.907 129.534 129.909 129.489C129.919 129.312 129.924 129.163 130.006 129.002C130.025 128.965 130.044 128.931 130.062 128.893C130.067 128.883 130.075 128.874 130.075 128.863C130.074 128.861 130.069 128.861 130.069 128.861C130.01 128.892 129.958 128.935 129.904 128.973C129.542 129.23 129.186 129.496 128.816 129.74C128.748 129.784 128.675 129.819 128.611 129.868C128.348 130.069 128.166 130.364 127.92 130.585C127.903 130.601 127.845 130.642 127.867 130.632C128.16 130.495 128.436 130.302 128.721 130.147C129 129.996 129.284 129.87 129.571 129.736C129.625 129.71 129.665 129.677 129.715 129.646C129.721 129.643 129.581 129.667 129.547 129.674C129.519 129.682 129.434 129.687 129.415 129.659C129.384 129.615 129.533 129.431 129.57 129.402C129.742 129.261 129.937 129.152 130.123 129.032C130.345 128.887 130.546 128.685 130.733 128.494C130.876 128.349 131.016 128.169 131.178 128.046C131.223 128.012 131.339 127.918 131.203 127.976C131.002 128.064 130.801 128.194 130.614 128.309C130.428 128.423 130.264 128.555 130.091 128.686C130.031 128.73 129.971 128.769 129.919 128.824C129.906 128.838 129.957 128.839 129.975 128.834C130.144 128.79 130.31 128.734 130.471 128.663C130.738 128.547 131.01 128.408 131.257 128.251C131.392 128.165 131.504 128.047 131.635 127.958C131.676 127.931 131.717 127.905 131.752 127.87" stroke="black" stroke-linecap="round"/>
<path d="M130.656 128.135C131.639 127.599 132.56 126.985 133.584 126.525C133.744 126.453 133.911 126.389 134.073 126.321C134.178 126.276 134.559 126.149 134.225 126.269C133.624 126.486 133.125 126.95 132.532 127.157C132.422 127.195 132.269 127.365 132.188 127.455C132.087 127.568 131.965 127.645 131.857 127.751C131.65 127.955 132.174 127.23 132.419 127.079C132.707 126.902 133.004 126.731 133.287 126.539C133.433 126.441 133.574 126.381 133.716 126.269C133.896 126.126 134.139 125.994 134.347 125.902C134.654 125.768 134.948 125.624 135.256 125.493C135.297 125.476 135.485 125.364 135.469 125.365C135.388 125.37 135.164 125.496 135.087 125.537C134.849 125.667 134.611 125.793 134.418 125.995C134.361 126.054 134.161 126.182 134.241 126.167C134.444 126.129 134.615 125.967 134.817 125.91C135.023 125.851 135.316 125.682 135.49 125.556C135.68 125.419 135.851 125.316 136.002 125.133C136.042 125.084 136.156 125.106 136.058 125.171C135.973 125.228 135.784 125.275 135.682 125.28C135.412 125.29 135.534 125.274 135.746 125.28C135.997 125.286 136.4 125.535 136.539 125.185C136.59 125.057 136.75 124.927 136.877 124.898C136.948 124.882 137.292 124.896 137.201 124.896C136.926 124.896 136.651 124.896 136.376 124.896C136.152 124.896 136.198 124.953 136.367 125.043C136.685 125.215 137.089 125.152 137.447 125.152C137.694 125.152 137.976 125.193 138.216 125.142C138.294 125.126 138.432 125.035 138.32 124.96C138.199 124.879 138.032 124.885 137.894 124.863C137.696 124.831 137.483 124.854 137.282 124.854C137.046 124.854 137.057 124.717 137.305 124.789C137.531 124.855 137.72 124.939 137.957 124.939C138.199 124.939 138.441 124.939 138.683 124.939C139.176 124.939 138.206 124.752 138.206 124.898C138.206 124.996 138.44 125.232 138.529 125.237C138.643 125.244 138.76 125.237 138.875 125.237C139.028 125.237 139.155 125.356 139.303 125.365C139.536 125.378 139.305 125.217 139.254 125.109C139.176 124.945 139.407 124.981 139.201 124.981C139.048 124.981 138.962 124.896 139.161 124.896C139.543 124.896 139.991 124.859 140.355 124.991C140.588 125.075 140.805 125.144 141.035 125.256C141.361 125.415 140.655 125.368 140.537 125.322C140.443 125.287 140.357 125.295 140.264 125.27C140.144 125.238 140.035 125.129 139.915 125.111C139.846 125.101 139.408 125.109 139.548 125.109C139.611 125.109 139.91 125.161 139.711 125.27C139.673 125.291 139.556 125.266 139.655 125.282C139.792 125.304 139.936 125.356 140.07 125.398C140.226 125.446 140.353 125.409 140.512 125.495C140.754 125.627 141.071 125.663 141.343 125.663C141.401 125.663 141.771 125.816 141.701 125.663C141.654 125.559 141.479 125.322 141.364 125.322C141.248 125.322 141.476 125.322 141.502 125.325C141.611 125.337 141.755 125.443 141.855 125.493C142.025 125.577 142.234 125.557 142.412 125.611C142.585 125.663 142.718 125.731 142.891 125.81C143.004 125.861 143.354 125.973 143.299 125.964C143.073 125.925 142.836 125.951 142.612 125.91C142.394 125.869 142.267 125.705 142.036 125.705C142 125.705 141.842 125.703 141.964 125.705C142.101 125.709 142.25 125.745 142.36 125.831C142.476 125.922 142.677 125.957 142.77 126.068C142.801 126.103 142.928 126.146 142.828 126.13C142.673 126.105 142.544 126.006 142.394 125.97C142.342 125.958 141.68 125.82 141.688 125.843C141.713 125.922 142.008 125.938 142.077 125.961C142.218 126.01 142.345 126.09 142.487 126.135C142.761 126.22 143.013 126.267 143.296 126.3C143.496 126.323 143.631 126.397 143.822 126.463C143.907 126.493 144.157 126.674 144.157 126.472" stroke="black" stroke-linecap="round"/>
<path d="M138.846 125.034C138.909 125.034 138.972 125.034 139.034 125.034C139.15 125.034 138.805 125.009 138.692 124.985C138.636 124.974 138.427 124.975 138.41 124.88C138.4 124.819 138.955 124.822 139.033 124.822C139.255 124.822 139.483 124.87 139.704 124.887C140.059 124.913 140.38 125.037 140.705 125.183C140.898 125.27 141.092 125.29 141.298 125.327C141.358 125.338 141.411 125.359 141.473 125.359C141.53 125.359 141.524 125.343 141.6 125.357C142.21 125.468 142.892 125.589 143.429 125.937C143.491 125.977 143.543 126.034 143.605 126.073C143.647 126.1 143.707 126.111 143.754 126.123C143.906 126.166 144.059 126.206 144.211 126.254C144.35 126.298 144.549 126.361 144.661 126.471C144.741 126.549 144.833 126.613 144.92 126.683C145.111 126.839 145.306 126.99 145.503 127.139C145.553 127.177 145.604 127.214 145.654 127.251C145.737 127.313 145.67 127.264 145.622 127.224C145.272 126.944 144.944 126.633 144.592 126.358C144.525 126.304 144.449 126.253 144.368 126.223C144.34 126.213 144.158 126.125 144.15 126.207C144.142 126.289 144.168 126.377 144.216 126.443C144.261 126.502 144.339 126.544 144.398 126.585C144.713 126.805 145.039 127.011 145.36 127.22C145.533 127.332 145.657 127.416 145.855 127.481C145.935 127.507 145.996 127.506 145.951 127.398C145.886 127.243 145.764 127.147 145.648 127.039C145.617 127.011 145.485 126.903 145.602 126.99C145.859 127.182 146.093 127.417 146.378 127.565C146.529 127.644 146.687 127.727 146.809 127.851C146.911 127.955 147.027 128.038 147.133 128.136C147.165 128.166 147.209 128.202 147.23 128.244C147.264 128.317 147.182 128.294 147.144 128.278C147.013 128.224 146.896 128.136 146.768 128.072C146.563 127.968 146.363 127.875 146.148 127.797C146.028 127.753 145.901 127.726 145.802 127.64C145.78 127.621 145.636 127.518 145.754 127.563C146.047 127.677 146.327 127.844 146.609 127.985C146.797 128.079 146.958 128.178 147.113 128.324C147.135 128.346 147.199 128.407 147.172 128.396C147.116 128.375 147.058 128.365 147.004 128.341C146.814 128.257 146.588 128.265 146.419 128.129C146.396 128.111 146.357 128.088 146.341 128.061C146.314 128.016 146.706 128.215 146.706 128.215C147.065 128.42 147.394 128.661 147.736 128.887C147.849 128.961 147.958 129.041 148.05 129.141C148.077 129.17 148.168 129.327 148.081 129.239C147.811 128.963 147.558 128.653 147.39 128.3C147.377 128.274 147.36 128.239 147.351 128.211C147.345 128.191 147.39 128.232 147.407 128.246C147.552 128.374 147.692 128.511 147.828 128.65C147.997 128.822 148.13 128.985 148.253 129.189C148.293 129.256 148.325 129.327 148.364 129.395C148.417 129.486 148.494 129.583 148.516 129.689C148.525 129.735 148.32 129.597 148.294 129.582C148.16 129.506 148.053 129.414 147.934 129.314C147.776 129.181 147.606 129.063 147.449 128.928C147.305 128.802 147.15 128.689 146.975 128.612C146.86 128.56 147 128.6 147.05 128.618C147.482 128.782 147.895 129.025 148.283 129.281C148.554 129.461 148.779 129.686 148.991 129.938C149.015 129.965 149.213 130.225 149.138 130.205C148.999 130.169 148.882 130.034 148.782 129.937C148.668 129.825 148.542 129.715 148.436 129.592C148.203 129.32 148.974 130.068 149.192 130.354C149.274 130.46 149.321 130.56 149.376 130.679C149.397 130.727 149.408 130.796 149.442 130.835C149.565 130.98 149.738 131.075 149.861 131.225C149.96 131.344 150.054 131.514 150.094 131.666C150.119 131.763 150.157 131.861 150.196 131.953C150.204 131.971 150.209 131.998 150.181 131.989C150.107 131.967 150.061 131.877 150.015 131.82C149.881 131.652 149.758 131.483 149.65 131.293C149.457 130.957 149.391 130.583 149.236 130.232C149.197 130.146 149.337 130.174 149.383 130.198C149.589 130.302 149.611 130.634 149.676 130.83C149.746 131.038 149.863 131.268 149.991 131.445C150.082 131.569 150.205 131.646 150.308 131.751C150.383 131.829 150.461 131.903 150.531 131.985C150.685 132.169 150.162 131.663 150.054 131.445C150.007 131.353 149.951 131.255 149.925 131.152C149.915 131.109 149.933 131.076 149.969 131.112" stroke="black" stroke-linecap="round"/>
<path d="M150.172 131.878C150.261 132.05 150.416 132.209 150.465 132.4C150.501 132.541 150.602 132.661 150.679 132.78C150.752 132.892 150.824 132.977 150.865 133.106C150.912 133.251 151.01 133.428 150.999 133.586C150.995 133.633 150.763 133.435 150.737 133.39C150.675 133.286 150.57 133.031 150.754 133.287C150.924 133.523 151.077 133.766 151.092 134.062C151.094 134.105 151.169 134.192 151.198 134.218C151.291 134.304 151.323 134.49 151.357 134.613C151.384 134.708 151.357 134.806 151.38 134.901C151.442 135.158 151.561 135.4 151.622 135.66C151.649 135.77 151.701 135.869 151.701 135.984C151.701 136.048 151.71 136.121 151.725 136.183C151.742 136.254 151.762 136.326 151.762 136.399C151.762 136.484 151.827 136.591 151.848 136.676C151.886 136.829 151.864 136.983 151.895 137.135C151.93 137.302 151.912 137.466 151.936 137.631C151.958 137.8 151.996 137.954 151.996 138.125C151.996 138.189 151.996 138.253 151.996 138.317C151.996 138.435 151.995 138.549 151.973 138.667C151.958 138.754 151.962 138.852 151.934 138.936C151.912 139 151.904 139.091 151.871 139.148C151.834 139.213 151.84 139.295 151.824 139.369C151.81 139.435 151.794 139.487 151.794 139.555" stroke="black" stroke-width="2" stroke-linecap="round"/>
<path d="M151.71 139.537C151.617 139.663 151.567 139.864 151.516 140.014C151.488 140.099 151.51 140.172 151.47 140.254C151.433 140.333 151.41 140.453 151.389 140.539C151.374 140.602 151.353 140.721 151.31 140.768C151.222 140.858 151.183 140.983 151.115 141.088C151.053 141.181 150.976 141.276 150.909 141.363C150.775 141.538 150.784 141.766 150.589 141.902" stroke="black" stroke-width="2" stroke-linecap="round"/>
<path d="M150.589 141.902C150.528 142.125 150.289 142.296 150.191 142.511C150.115 142.674 150.059 142.851 149.962 142.999C149.838 143.188 149.714 143.378 149.617 143.585C149.549 143.734 149.489 143.883 149.413 144.027C149.335 144.175 149.223 144.303 149.143 144.454C149.004 144.713 148.814 144.941 148.648 145.182C148.553 145.321 148.425 145.43 148.338 145.577C148.168 145.869 148.031 146.187 147.849 146.473C147.63 146.815 147.457 147.186 147.221 147.517C147.115 147.666 147.023 147.804 146.949 147.974C146.909 148.065 146.832 148.116 146.776 148.194C146.68 148.329 146.567 148.446 146.456 148.57C146.13 148.937 145.928 149.415 145.664 149.832C145.546 150.018 145.479 150.278 145.341 150.439C145.296 150.491 145.276 150.588 145.217 150.619" stroke="black" stroke-width="2" stroke-linecap="round"/>
<path d="M145.24 150.524C145.137 150.556 145.042 150.835 144.967 150.918C144.871 151.024 144.837 151.193 144.741 151.306C144.401 151.709 144.093 152.094 143.82 152.546C143.771 152.628 143.747 152.708 143.708 152.793C143.651 152.919 143.555 153.02 143.471 153.127C143.295 153.358 143.166 153.621 143.004 153.862C142.903 154.015 142.828 154.192 142.737 154.353C142.638 154.528 142.533 154.705 142.451 154.889C142.384 155.04 142.231 155.156 142.135 155.287C142.042 155.416 141.949 155.545 141.861 155.678C141.683 155.946 141.595 156.29 141.368 156.527C141.041 156.868 140.768 157.257 140.529 157.669C140.391 157.907 140.253 158.15 140.127 158.395C140.056 158.53 139.969 158.616 139.872 158.736C139.577 159.097 139.364 159.5 139.092 159.874C138.941 160.081 138.825 160.312 138.674 160.518C138.458 160.81 138.256 161.095 138.072 161.404C137.896 161.699 137.703 161.979 137.525 162.277C137.441 162.419 137.372 162.573 137.284 162.712C137.265 162.742 137.243 162.785 137.215 162.8" stroke="black" stroke-width="2" stroke-linecap="round"/>
<path d="M137.375 162.656C137.229 162.681 137.094 162.922 136.997 163.03C136.861 163.179 136.743 163.346 136.631 163.515C136.468 163.763 136.219 163.947 136.061 164.199C135.896 164.46 135.684 164.706 135.547 164.984C135.427 165.225 135.297 165.461 135.181 165.703C135.067 165.941 134.844 166.15 134.688 166.359C134.564 166.526 134.449 166.709 134.335 166.884C134.252 167.011 134.147 167.13 134.075 167.265C134.032 167.343 133.967 167.39 133.904 167.456C133.764 167.602 133.625 167.758 133.503 167.923C133.234 168.287 132.958 168.649 132.691 169.019C132.368 169.465 131.959 169.863 131.683 170.342C131.543 170.585 131.374 170.83 131.226 171.064" stroke="black" stroke-width="2" stroke-linecap="round"/>
<path d="M98.8266 157.454C98.6471 157.121 98.2666 156.834 98.0246 156.548C97.8709 156.367 97.7218 156.185 97.5584 156.015C97.0627 155.497 96.6393 154.892 96.1812 154.339C95.9338 154.04 95.6855 153.686 95.3791 153.446C95.2496 153.344 95.1567 153.133 95.063 152.997C94.9674 152.857 94.8611 152.731 94.7718 152.587C94.6914 152.457 94.5699 152.397 94.4699 152.293C94.2672 152.081 94.202 151.763 94.0225 151.525C93.8019 151.233 93.4937 151.016 93.3035 150.696C93.2186 150.552 93.0293 150.396 93.0293 150.217" stroke="black" stroke-width="2" stroke-linecap="round"/>
<path d="M93.8679 151.435V151.512" stroke="black" stroke-width="2" stroke-linecap="round"/>
<path d="M93.5402 150.674C93.4473 150.639 93.3919 150.516 93.3213 150.446C93.2633 150.389 93.2035 150.431 93.1391 150.399C93.0275 150.344 92.9453 150.094 92.9025 149.985C92.8498 149.85 92.8015 149.709 92.756 149.571C92.7372 149.515 92.7104 149.47 92.6854 149.417C92.6542 149.353 92.9695 149.685 93.0016 149.722C93.1454 149.884 93.4508 150.462 93.3008 150.306C93.0507 150.044 92.9087 149.597 92.773 149.264C92.6658 149.005 92.5086 148.773 92.4104 148.511C92.2898 148.195 92.2317 147.852 92.1201 147.532C92.0451 147.314 92.0093 147.131 92.0093 146.903" stroke="black" stroke-width="2" stroke-linecap="round"/>
<path d="M92.0093 146.941C92.0093 146.686 91.9888 146.418 91.9075 146.18C91.828 145.946 91.8405 145.667 91.8084 145.422C91.7762 145.178 91.7262 144.929 91.6646 144.692C91.5467 144.237 91.5717 143.776 91.5717 143.308C91.5717 142.884 91.4985 142.464 91.4985 142.036C91.4985 141.752 91.4985 141.466 91.4985 141.182C91.4985 140.834 91.5735 140.528 91.6039 140.181C91.6494 139.657 91.6941 139.152 91.8066 138.632C91.8566 138.399 91.8995 138.198 91.8995 137.953" stroke="black" stroke-width="2" stroke-linecap="round"/>
<path d="M91.8995 138.181C91.8995 137.557 91.9263 136.99 92.1915 136.416C92.3764 136.015 92.4845 135.562 92.6649 135.151C92.7471 134.965 92.7899 134.764 92.9123 134.601C93.0847 134.37 93.2392 134.088 93.358 133.824C93.4258 133.674 93.6268 133.42 93.7956 133.42" stroke="black" stroke-width="2" stroke-linecap="round"/>
<path d="M93.9045 133.252C94.3734 132.73 94.8995 132.216 95.5032 131.863C95.7489 131.72 95.9641 131.529 96.2231 131.404C96.3874 131.325 96.5929 131.286 96.7447 131.182C96.9296 131.054 97.16 130.935 97.369 130.857C97.6164 130.765 97.8549 130.814 98.1023 130.769C98.1362 130.763 98.1701 130.74 98.1987 130.725C98.3684 130.635 98.539 130.558 98.7194 130.495C98.8462 130.451 98.99 130.396 99.1258 130.396C99.2687 130.396 99.4071 130.352 99.5518 130.352C100.397 130.352 101.242 130.352 102.087 130.352C102.646 130.352 103.21 130.328 103.765 130.397C103.92 130.416 104.064 130.49 104.223 130.506C104.347 130.518 104.469 130.54 104.594 130.55C104.754 130.564 104.9 130.63 105.062 130.638C105.13 130.642 105.19 130.669 105.257 130.676C105.354 130.688 105.452 130.675 105.549 130.686C105.705 130.704 105.861 130.722 106.016 130.747C106.183 130.774 106.338 130.843 106.505 130.867C106.783 130.907 107.064 130.976 107.325 131.088C107.693 131.245 108.104 131.299 108.46 131.48C108.694 131.599 108.91 131.749 109.134 131.89" stroke="black" stroke-width="2" stroke-linecap="round"/>
<path d="M109.218 131.956C109.452 132.005 109.714 132.219 109.905 132.361C110.12 132.522 110.312 132.715 110.527 132.874C110.751 133.04 111.015 133.165 111.254 133.305C111.647 133.537 112.028 133.822 112.384 134.114C112.642 134.323 112.957 134.425 113.215 134.637" stroke="black" stroke-width="2" stroke-linecap="round"/>
<path d="M113.32 134.879C113.679 134.999 114.011 135.194 114.339 135.384C114.571 135.519 114.789 135.662 115.007 135.82C115.274 136.013 115.562 136.159 115.84 136.334C116.304 136.627 116.728 137.046 117.137 137.415C117.611 137.845 118.144 138.199 118.649 138.59C118.887 138.775 119.136 139.003 119.315 139.252" stroke="black" stroke-width="2" stroke-linecap="round"/>
<path d="M134.921 58.7412C135.041 56.9079 135.451 56.2948 136.251 55.1845C137.467 53.4952 140.405 52.7158 142.665 53.4667C144.924 54.2174 146.14 56.6575 146.33 58C146.516 59.312 146.836 61.3407 144.925 63.8793C143.698 65.5073 139.536 65.7563 137.467 64.5694C136.579 63.9509 135.071 62.353 134.882 60.0546C134.848 59.6391 134.857 59.2008 134.921 58.7412Z" fill="black"/>
<path d="M134.882 60.1253C134.882 57.1507 135.277 56.5359 136.251 55.1845C137.467 53.4952 140.405 52.7158 142.665 53.4667C144.924 54.2174 146.14 56.6575 146.33 58C146.516 59.312 146.836 61.3407 144.925 63.8793C143.698 65.5073 139.536 65.7563 137.467 64.5694C136.419 63.8389 134.504 61.7425 134.921 58.7393" stroke="black"/>
<path d="M131.29 170.737C130.921 171.047 130.633 171.476 130.305 171.834C130.023 172.142 129.724 172.478 129.519 172.849C129.331 173.19 129.162 173.514 128.908 173.805C128.488 174.287 128.063 174.768 127.676 175.283C127.108 176.041 126.31 176.575 125.692 177.29C125.549 177.456 125.425 177.63 125.283 177.8C125.203 177.895 125.076 178.082 125.038 178.201" stroke="black" stroke-width="2" stroke-linecap="round"/>
<path d="M125.038 178.201C124.856 178.326 124.773 178.495 124.571 178.611C124.457 178.676 124.346 178.744 124.227 178.807C124.14 178.853 124.023 178.879 123.939 178.928C123.834 178.988 123.736 179.042 123.631 179.096C123.528 179.149 123.382 179.131 123.252 179.131" stroke="black" stroke-width="2" stroke-linecap="round"/>
<path d="M123.252 179.134C122.607 178.62 122.044 178.036 121.317 177.614C121.133 177.507 120.89 177.486 120.732 177.346C120.112 176.796 119.484 176.286 118.795 175.814C118.242 175.437 117.741 175.011 117.215 174.603C117.151 174.554 117.079 174.494 117 174.469" stroke="black" stroke-width="2" stroke-linecap="round"/>
<path d="M117 174.469C116.41 174.042 115.897 173.493 115.348 173.007C114.84 172.558 114.342 172.088 113.823 171.653C113.444 171.335 113.04 171.092 112.683 170.742C111.921 169.997 111.172 169.222 110.402 168.494C109.629 167.762 108.952 166.902 108.194 166.151C107.903 165.863 108.203 166.444 108.258 166.577C108.308 166.699 108.424 166.806 108.538 166.847" stroke="black" stroke-width="2" stroke-linecap="round"/>
<path d="M108.069 167.005C107.738 166.603 107.362 166.237 106.994 165.869C106.565 165.439 106.144 164.971 105.666 164.591C105.597 164.537 105.516 164.509 105.443 164.463C105.396 164.433 105.349 164.373 105.318 164.341C104.882 163.895 104.435 163.458 103.982 163.029C103.126 162.219 102.209 161.482 101.356 160.675C100.309 159.684 99.2687 158.688 98.2443 157.675" stroke="black" stroke-width="2" stroke-linecap="round"/>
<path d="M135.044 138.124C135.596 138.076 136.232 138.088 136.952 138.16C138.128 138.4 138.968 138.844 139.472 139.492C139.712 139.756 139.892 140.104 140.012 140.536C140.132 140.968 140.132 141.424 140.012 141.904C139.796 142.816 139.244 143.38 138.356 143.596C138.068 143.668 137.78 143.668 137.492 143.596C137.084 143.524 136.784 143.308 136.592 142.948C136.52 142.828 136.472 142.648 136.448 142.408C136.448 142.024 136.532 141.664 136.7 141.328C136.844 140.992 137.108 140.704 137.492 140.464L137.708 140.32L137.528 140.212C136.76 139.78 135.872 139.66 134.864 139.852C134.72 139.876 134.588 139.912 134.468 139.96C133.892 140.128 133.448 140.464 133.136 140.968C132.488 141.928 132.464 142.696 133.064 143.272C133.112 143.32 133.172 143.368 133.244 143.416C133.484 143.584 134.024 143.764 134.864 143.956C135.632 144.1 136.1 144.208 136.268 144.28C137.612 144.688 138.512 145.468 138.968 146.62C139.16 147.028 139.256 147.532 139.256 148.132C139.256 148.588 139.244 148.888 139.22 149.032C139.004 150.016 138.62 150.88 138.068 151.624C136.7 153.544 134.576 154.468 131.696 154.396C129.584 154.324 128.132 153.676 127.34 152.452C127.268 152.356 127.208 152.248 127.16 152.128C126.992 151.792 126.908 151.384 126.908 150.904C126.884 150.424 126.98 149.956 127.196 149.5C127.388 149.188 127.544 148.96 127.664 148.816C128.432 148.072 129.26 147.868 130.148 148.204C130.196 148.228 130.244 148.252 130.292 148.276C130.772 148.492 131.048 148.864 131.12 149.392C131.24 150.184 130.964 150.88 130.292 151.48C130.148 151.624 129.98 151.744 129.788 151.84C129.62 151.936 129.524 151.996 129.5 152.02C129.572 152.14 129.884 152.284 130.436 152.452C130.916 152.596 131.516 152.668 132.236 152.668C132.956 152.668 133.532 152.596 133.964 152.452C134.756 152.212 135.356 151.756 135.764 151.084C136.316 150.292 136.436 149.596 136.124 148.996C135.884 148.492 135.476 148.144 134.9 147.952C134.732 147.88 134.288 147.772 133.568 147.628C132.728 147.46 132.08 147.28 131.624 147.088C130.664 146.56 130.04 145.78 129.752 144.748C129.704 144.556 129.68 144.256 129.68 143.848C129.656 143.416 129.74 142.876 129.932 142.228C130.196 141.436 130.592 140.716 131.12 140.068C132.032 138.988 133.34 138.34 135.044 138.124Z" fill="black"/>
</g>
<defs>
<clipPath id="clip0_102_38">
<rect width="234" height="181" fill="white"/>
</clipPath>
</defs>
</svg>
